<svg width="10" height="6" viewBox="0 0 10 6" fill="none" xmlns="http://www.w3.org/2000/svg">
<path d="M8.51182 0.251625C8.67733 0.0884535 8.89906 -0.00189825 9.12926 3.0249e-05C9.35946 0.00195875 9.5797 0.0960131 9.74256 0.261936C9.90542 0.427858 9.99785 0.652372 9.99996 0.887123C10.0021 1.12187 9.91368 1.34808 9.75383 1.51701L5.61574 5.73816C5.45112 5.90582 5.22798 6 4.99532 6C4.76266 6 4.53951 5.90582 4.3749 5.73816L0.235633 1.51821C0.0805512 1.34848 -0.00387631 1.124 0.000136782 0.892052C0.00414987 0.660102 0.0962903 0.438797 0.257147 0.274758C0.418003 0.110719 0.635016 0.0167557 0.862466 0.0126632C1.08992 0.00857071 1.31005 0.094669 1.47648 0.252819L4.99532 3.83888L8.51299 0.251625H8.51182Z" fill="#777777"/>
</svg>
