<svg width="10" height="12" viewBox="0 0 10 12" fill="none" xmlns="http://www.w3.org/2000/svg">
<path d="M4.52533 11.8082L0.191608 7.47457C0.0679022 7.35087 3.1411e-07 7.18599 3.06425e-07 7.01019C2.98732e-07 6.83419 0.0679997 6.66941 0.191608 6.5457L0.585166 6.15224C0.708677 6.02863 0.873652 5.96054 1.04955 5.96054C1.22536 5.96054 1.39589 6.02863 1.5194 6.15224L4.05314 8.68042L4.05314 0.648287C4.05314 0.286144 4.33665 -1.89561e-07 4.69889 -2.05395e-07L5.25527 -2.29715e-07C5.61751 -2.45549e-07 5.92961 0.286144 5.92961 0.648287L5.92961 8.7091L8.47749 6.15234C8.6012 6.02873 8.76168 5.96063 8.93759 5.96063C9.11329 5.96063 9.27612 6.02873 9.39973 6.15234L9.79202 6.5458C9.91572 6.66951 9.98314 6.83428 9.98314 7.01028C9.98314 7.18609 9.91484 7.35096 9.79114 7.47467L5.45752 11.8083C5.33342 11.9323 5.16776 12.0005 4.99167 12C4.81499 12.0004 4.64923 11.9323 4.52533 11.8082Z" fill="#999999"/>
</svg>
