<?xml version="1.0" encoding="UTF-8"?>
<svg width="12px" height="9px" viewBox="0 0 12 9" version="1.1" xmlns="http://www.w3.org/2000/svg" xmlns:xlink="http://www.w3.org/1999/xlink">
    <!-- Generator: Sketch 48 (47235) - http://www.bohemiancoding.com/sketch -->
    <title>Shape</title>
    <desc>Created with Sketch.</desc>
    <defs></defs>
    <g id="Page-1" stroke="none" stroke-width="1" fill="none" fill-rule="evenodd">
        <g id="check" fill="#333333" fill-rule="nonzero">
            <path d="M11.1473,0.000827583 C10.9371,0.0114473 10.7392,0.103013 10.5948,0.256411 L4.34762,6.76526 L1.39826,4.03904 C1.32079,3.95996 1.22809,3.89749 1.12579,3.85542 C1.02349,3.81335 0.91373,3.79256 0.803171,3.79431 C0.692612,3.79605 0.58356,3.82031 0.482637,3.86559 C0.381714,3.91087 0.291025,3.97624 0.216075,4.05773 C0.141125,4.13921 0.0834779,4.23512 0.0466341,4.33962 C0.00979024,4.44411 -0.00548182,4.55502 0.00174474,4.66562 C0.0089713,4.77621 0.0385461,4.88418 0.0886732,4.98297 C0.1388,5.08176 0.208434,5.16931 0.293347,5.2403 L3.82916,8.51173 C3.98593,8.65606 4.19276,8.73328 4.40554,8.72691 C4.61831,8.72054 4.82017,8.6311 4.96808,8.47765 L11.7677,1.3895 C11.8821,1.27211 11.9586,1.12296 11.9873,0.961411 C12.0161,0.799863 11.9956,0.633399 11.9287,0.48364 C11.8618,0.333881 11.7515,0.207748 11.6121,0.121647 C11.4728,0.0355463 11.3108,-0.00655098 11.1473,0.000827583 Z" id="Shape"></path>
        </g>
    </g>
</svg>