<svg width="18" height="18" viewBox="0 0 18 18" fill="none" xmlns="http://www.w3.org/2000/svg">
<path d="M14.4775 4.00287C13.4508 3.53327 12.3604 3.19103 11.2222 3C11.0789 3.24674 10.9197 3.58103 10.8082 3.84369C9.59767 3.66858 8.3958 3.66858 7.20191 3.84369C7.09048 3.58103 6.92332 3.24674 6.78801 3C5.64188 3.19103 4.55146 3.53327 3.53186 4.00287C1.4704 7.04333 0.913244 10.0121 1.19182 12.9412C2.56082 13.9361 3.88209 14.541 5.18026 14.939C5.49863 14.5092 5.78517 14.0475 6.03191 13.562C5.56231 13.3869 5.11658 13.172 4.68678 12.9173C4.79821 12.8378 4.90965 12.7502 5.01312 12.6626C7.60785 13.8486 10.4183 13.8486 12.9811 12.6626C13.0926 12.7502 13.1961 12.8378 13.3075 12.9173C12.8777 13.172 12.432 13.3869 11.9624 13.562C12.2092 14.0475 12.4957 14.5092 12.814 14.939C14.1114 14.541 15.4406 13.9361 16.8025 12.9412C17.1447 9.55058 16.2604 6.6056 14.4775 4.00287ZM6.39007 11.1344C5.61005 11.1344 4.9733 10.4261 4.9733 9.55853C4.9733 8.69093 5.59413 7.98255 6.39007 7.98255C7.17803 7.98255 7.82272 8.69093 7.80682 9.55853C7.80682 10.4261 7.17803 11.1344 6.39007 11.1344ZM11.6202 11.1344C10.8401 11.1344 10.2025 10.4261 10.2025 9.55853C10.2025 8.69093 10.8242 7.98255 11.6202 7.98255C12.4081 7.98255 13.0528 8.69093 13.0369 9.55853C13.0369 10.4261 12.4161 11.1344 11.6202 11.1344Z" fill="#111111"/>
</svg>
