<svg width="14" height="14" viewBox="0 0 14 14" fill="none" xmlns="http://www.w3.org/2000/svg">
<g clip-path="url(#clip0_70_28)">
<path fill-rule="evenodd" clip-rule="evenodd" d="M9.31546 0.185513C9.59448 -0.0693401 10.0377 -0.0605134 10.3052 0.20522L13.2782 3.15755C13.47 3.31649 13.631 3.50803 13.7521 3.72309C13.8937 3.95448 14 4.23213 14 4.55132V10.1341C14 11.1656 13.1219 12 12.04 12C10.9575 12 10.08 11.1643 10.08 10.1333V8.59993C10.08 8.23173 9.76661 7.93327 9.38 7.93327H8.4V12.6667C8.4 12.7127 8.39755 12.7581 8.39279 12.803C8.36605 13.0533 8.26665 13.2833 8.11489 13.4732C7.85918 13.7933 7.45493 14 7 14H1.4C0.916748 14 0.490686 13.7668 0.239099 13.4121C0.0881439 13.1993 7e-06 12.9428 0 12.6667V2.6666C0 1.56203 0.940205 0.6666 2.1 0.6666H6.3C7.45983 0.6666 8.4 1.56203 8.4 2.6666V6.59993H9.38C10.5398 6.59993 11.48 7.4954 11.48 8.59993V10.1333C11.48 10.4279 11.7307 10.6667 12.04 10.6667C12.3499 10.6667 12.6 10.4281 12.6 10.1341V6.5528C12.381 6.62647 12.1454 6.6666 11.9 6.6666C10.7402 6.6666 9.8 5.7712 9.8 4.6666C9.8 3.85901 10.3026 3.16321 11.0262 2.84745L9.29481 1.12811C9.0272 0.86238 9.03644 0.440367 9.31546 0.185513ZM12.3269 4.13821C12.2087 4.0515 12.0607 3.99993 11.9 3.99993C11.5134 3.99993 11.2 4.29841 11.2 4.6666C11.2 5.03479 11.5134 5.33327 11.9 5.33327C12.2866 5.33327 12.6 5.03479 12.6 4.6666C12.6 4.56056 12.574 4.4603 12.5278 4.37129C12.4812 4.30109 12.4144 4.22373 12.3269 4.13821ZM2.251 2.14975C1.8644 2.14975 1.551 2.44823 1.551 2.81642V5.48309C1.551 5.85127 1.8644 6.14973 2.251 6.14973H6.10099C6.4876 6.14973 6.80099 5.85127 6.80099 5.48309V2.81642C6.80099 2.44823 6.4876 2.14975 6.10099 2.14975H2.251Z" fill="#AAAAAA"/>
</g>
<defs>
<clipPath id="clip0_70_28">
<rect width="14" height="14" fill="white"/>
</clipPath>
</defs>
</svg>
