<svg width="16" height="16" viewBox="0 0 16 16" fill="none" xmlns="http://www.w3.org/2000/svg">
<path d="M11.0476 13.5366L9.09255 12.5851L9.24826 13.8596L9.23096 14.3959L11.0476 13.5366ZM4.99219 13.5366L6.8088 14.3959L6.79727 13.8596L6.94144 12.5851L4.99219 13.5366Z" fill="#D7C1B3" stroke="#D7C1B3" stroke-width="0.0753296" stroke-linecap="round" stroke-linejoin="round"/>
<path d="M6.83724 10.4281L5.21094 9.94945L6.35858 9.42465L6.83724 10.4281ZM9.19596 10.4281L9.67462 9.42465L10.828 9.94945L9.19596 10.4281Z" fill="#233447" stroke="#233447" stroke-width="0.0753296" stroke-linecap="round" stroke-linejoin="round"/>
<path d="M3.89648 8.61728L5.2575 11.2701L5.21137 9.94946L3.89648 8.61728ZM10.8342 9.94946L10.7766 11.2701L12.1433 8.61728L10.8342 9.94946ZM7.14332 8.76145L6.83767 10.4281L7.21829 12.3947L7.3048 9.80529L7.14332 8.76145ZM8.90227 8.76145L8.74656 9.79952L8.81576 12.3947L9.20215 10.4281L8.90227 8.76145Z" fill="#E4751F" stroke="#E4751F" stroke-width="0.0753296" stroke-linecap="round" stroke-linejoin="round"/>
<path d="M9.20172 10.4282L8.81533 12.3947L9.09215 12.585L10.7761 11.2701L10.8338 9.94949L9.20172 10.4282ZM5.21094 9.94949L5.25707 11.2701L6.94105 12.585L7.21786 12.3947L6.83724 10.4282L5.21094 9.94949Z" fill="#F6851B" stroke="#F6851B" stroke-width="0.0753296" stroke-linecap="round" stroke-linejoin="round"/>
<path d="M14.8827 5.85491L15.3729 3.50196L14.6405 1.31625L9.09263 5.43391L11.2264 7.239L14.2426 8.12135L14.9116 7.3428L14.6232 7.13519L15.0846 6.7142L14.727 6.43738L15.1884 6.08559L14.8827 5.85491ZM0.666992 3.50196L1.15719 5.85491L0.84577 6.08559L1.30713 6.43738L0.955344 6.7142L1.41671 7.13519L1.12835 7.3428L1.79156 8.12135L4.80772 7.239L6.94152 5.43391L1.39364 1.31625L0.666992 3.50196Z" fill="#763D16" stroke="#763D16" stroke-width="0.0753296" stroke-linecap="round" stroke-linejoin="round"/>
<path d="M14.6405 1.31625L8.90234 5.57809L9.96348 3.06366L14.6405 1.31625Z" fill="#E2761B" stroke="#E2761B" stroke-width="0.0753296" stroke-linecap="round" stroke-linejoin="round"/>
<path d="M1.39362 1.31625L7.08569 5.61846L6.07645 3.06366L1.39362 1.31625ZM12.5759 11.1952L11.0476 13.5366L14.3175 14.4363L15.2576 11.2471L12.5759 11.1952ZM0.788086 11.2471L1.72234 14.4363L4.99225 13.5366L3.46399 11.1952L0.788086 11.2471Z" fill="#E4761B" stroke="#E4761B" stroke-width="0.0753296" stroke-linecap="round" stroke-linejoin="round"/>
<path d="M4.80768 7.23901L3.89648 8.61733L7.14332 8.76151L7.02798 5.27246L4.80768 7.23901ZM11.2264 7.23901L8.97724 5.23209L8.90227 8.76151L12.1433 8.61733L11.2264 7.23901ZM4.99222 13.5366L6.94148 12.5851L5.2575 11.2702L4.99222 13.5366ZM9.09258 12.5851L11.0476 13.5366L10.7766 11.2702L9.09258 12.5851Z" fill="#E4761B" stroke="#E4761B" stroke-width="0.0753296" stroke-linecap="round" stroke-linejoin="round"/>
<path d="M4.99213 13.5366L5.26895 11.1951L3.46387 11.247L4.99213 13.5366ZM10.7707 11.1951L11.0475 13.5366L12.5758 11.247L10.7707 11.1951ZM12.1433 8.61728L8.90218 8.76145L9.20206 10.4281L9.68073 9.42466L10.8341 9.94946L12.1433 8.61728ZM5.21128 9.94946L6.36468 9.42466L6.83758 10.4281L7.14323 8.76145L3.89639 8.61728L5.21128 9.94946Z" fill="#CD6116" stroke="#CD6116" stroke-width="0.0753296" stroke-linecap="round" stroke-linejoin="round"/>
<path d="M9.23096 14.3959L9.24826 13.8596L9.10408 13.7327H6.92991L6.79727 13.8596L6.8088 14.3959L4.99219 13.5366L5.62656 14.0557L6.91261 14.9495H9.12138L10.4132 14.0557L11.0476 13.5366L9.23096 14.3959Z" fill="#C0AD9E" stroke="#C0AD9E" stroke-width="0.0753296" stroke-linecap="round" stroke-linejoin="round"/>
<path d="M9.09215 12.585L8.81534 12.3947H7.21787L6.94105 12.585L6.79688 13.8595L6.92952 13.7327H9.10369L9.24786 13.8595L9.09215 12.585Z" fill="#161616" stroke="#161616" stroke-width="0.0753296" stroke-linecap="round" stroke-linejoin="round"/>
<path d="M14.2426 8.12132L11.2264 7.23896L12.1434 8.61728L10.7766 11.2701L12.5759 11.247H15.2576L14.2426 8.12132ZM4.80771 7.23896L1.79155 8.12132L0.788086 11.247H3.46399L5.25754 11.2701L3.89652 8.61728L4.80771 7.23896ZM8.9023 8.76146L9.09261 5.43388L9.9692 3.06363H6.07645L6.94151 5.43388L7.14336 8.76146L7.21256 9.81106L7.21833 12.3947H8.81579L8.82733 9.81106L8.9023 8.76146Z" fill="#F6851B" stroke="#F6851B" stroke-width="0.0753296" stroke-linecap="round" stroke-linejoin="round"/>
</svg>
