<svg width="28" height="28" viewBox="0 0 28 28" fill="none" xmlns="http://www.w3.org/2000/svg">
<g clip-path="url(#clip0_33_127)">
<path d="M14 28C21.732 28 28 21.732 28 14C28 6.26801 21.732 0 14 0C6.26801 0 0 6.26801 0 14C0 21.732 6.26801 28 14 28Z" fill="#FF0420"/>
<path d="M9.91462 17.7129C9.18621 17.744 8.46741 17.5375 7.86649 17.1247C7.60689 16.9264 7.3995 16.6678 7.26226 16.3714C7.12502 16.075 7.06206 15.7496 7.07882 15.4233C7.08202 15.2332 7.09959 15.0436 7.13138 14.8562C7.22242 14.3513 7.35194 13.7456 7.51994 13.0392C7.99609 11.1136 9.22488 10.1508 11.2063 10.1508C11.7029 10.1427 12.196 10.2356 12.6556 10.4239C13.0636 10.5838 13.4146 10.8617 13.6639 11.2222C13.9152 11.5935 14.0436 12.0344 14.0311 12.4826C14.0275 12.6692 14.0099 12.8552 13.9785 13.0392C13.8734 13.6624 13.7474 14.268 13.6005 14.8562C13.3557 15.8154 12.9321 16.5331 12.3297 17.0092C11.728 17.4783 10.9229 17.7129 9.91462 17.7129ZM10.0617 16.2004C10.4255 16.2105 10.7804 16.0872 11.0596 15.8539C11.3682 15.574 11.5782 15.2019 11.6582 14.7931C11.8193 14.1352 11.9417 13.561 12.0254 13.0706C12.0536 12.9217 12.0676 12.7705 12.0674 12.619C12.0674 11.9817 11.7349 11.6631 11.0697 11.6633C10.703 11.6545 10.3453 11.7774 10.0615 12.0098C9.75861 12.2927 9.55275 12.6639 9.47328 13.0706C9.3472 13.5397 9.2212 14.1139 9.09528 14.7931C9.06678 14.9384 9.05271 15.0861 9.05328 15.2342C9.05328 15.8784 9.38944 16.2004 10.0617 16.2004Z" fill="white"/>
<path d="M14.5152 17.6079C14.4818 17.6098 14.4484 17.6042 14.4175 17.5915C14.3866 17.5788 14.359 17.5593 14.3366 17.5344C14.3017 17.478 14.2904 17.41 14.3052 17.3453L15.7545 10.5184C15.7673 10.443 15.8084 10.3754 15.8693 10.3292C15.9256 10.2828 15.996 10.2569 16.0689 10.2558H18.8627C19.5205 10.2235 20.1725 10.392 20.7323 10.7389C20.9625 10.8897 21.1494 11.0978 21.2746 11.3427C21.3999 11.5877 21.4591 11.8611 21.4466 12.1359C21.4455 12.3198 21.4244 12.5029 21.3834 12.6822C21.2676 13.3898 20.8887 14.0276 20.3227 14.4677C19.7975 14.8528 19.0763 15.0454 18.1591 15.0454H16.7414L16.2583 17.3455C16.2454 17.4209 16.2044 17.4885 16.1435 17.5346C16.0873 17.581 16.017 17.6069 15.9441 17.6081L14.5152 17.6079ZM18.2332 13.5956C18.5084 13.6017 18.7779 13.5168 19 13.3542C19.2285 13.1864 19.3859 12.9391 19.4411 12.661C19.4606 12.5571 19.4711 12.4517 19.4726 12.3459C19.4785 12.2605 19.4656 12.1748 19.4348 12.0949C19.4039 12.015 19.3558 11.9429 19.294 11.8837C19.1187 11.7543 18.9017 11.6944 18.6849 11.7157H17.4247L17.0255 13.5956H18.2332Z" fill="white"/>
</g>
<defs>
<clipPath id="clip0_33_127">
<rect width="28" height="28" rx="14" fill="white"/>
</clipPath>
</defs>
</svg>
