<svg width="18" height="18" viewBox="0 0 18 18" fill="none" xmlns="http://www.w3.org/2000/svg">
<path d="M16.1146 9.63001C16.1399 9.41426 16.1566 9.19134 16.1566 8.95919C16.1566 5.73287 13.8925 4.56166 12.3704 4.56166C9.83686 4.56166 8.92033 6.16805 8.0601 8.11467C7.10328 10.3775 6.40716 11.1798 5.39965 11.1798C4.42246 11.1798 3.68563 10.2578 3.68563 9.03486C3.68563 8.92638 3.69311 8.81973 3.70474 8.71371C5.44493 8.5642 6.81536 7.12003 6.81536 5.36413C6.81536 3.50918 5.28685 2 3.40747 2C1.52872 2 0 3.50918 0 5.36413C0 6.59646 0.676592 7.67313 1.68016 8.25904C1.65066 8.49591 1.63217 8.74119 1.63217 8.99713C1.63217 11.4948 3.31212 13.4511 5.45657 13.4511C8.02043 13.4511 9.05619 11.4478 10.0535 9.03076C10.7461 7.38971 11.4231 6.72033 12.3895 6.72033C13.026 6.72033 14.1033 7.18791 14.1033 8.94053C14.1033 9.04553 14.0904 9.17432 14.0688 9.31562C12.4383 9.56541 11.1848 10.9573 11.1848 12.6357C11.1848 14.4908 12.7134 16 14.5921 16C16.4715 16 18 14.4908 18 12.6357C18.0002 11.3211 17.2305 10.1833 16.1146 9.63001ZM3.40747 3.52723C4.43389 3.52723 5.26877 4.35124 5.26877 5.36434C5.26877 6.37744 4.43368 7.20165 3.40747 7.20165C2.38147 7.20165 1.54658 6.37744 1.54658 5.36434C1.54658 4.35124 2.38147 3.52723 3.40747 3.52723ZM14.5923 14.473C13.5665 14.473 12.7314 13.6486 12.7314 12.6357C12.7314 11.6226 13.5665 10.7988 14.5923 10.7988C15.6187 10.7988 16.4538 11.6226 16.4538 12.6357C16.4538 13.6488 15.6189 14.473 14.5923 14.473Z" fill="#777777"/>
</svg>
