<svg width="14" height="14" viewBox="0 0 14 14" fill="none" xmlns="http://www.w3.org/2000/svg">
<g clip-path="url(#clip0_70_32)">
<path d="M7 14C8.38447 14 9.73784 13.5895 10.889 12.8203C12.0401 12.0511 12.9373 10.9579 13.4672 9.67879C13.997 8.3997 14.1356 6.99224 13.8655 5.63437C13.5954 4.2765 12.9287 3.02922 11.9497 2.05026C10.9708 1.07129 9.7235 0.404603 8.36563 0.134506C7.00776 -0.13559 5.6003 0.00303299 4.32122 0.532846C3.04213 1.06266 1.94888 1.95987 1.17971 3.11101C0.410543 4.26215 0 5.61553 0 7C0.00206822 8.85588 0.74023 10.6352 2.05254 11.9475C3.36484 13.2598 5.14412 13.9979 7 14ZM6.51163 3.09303C6.51163 2.9635 6.56308 2.83928 6.65467 2.74769C6.74625 2.65611 6.87047 2.60465 7 2.60465C7.12952 2.60465 7.25374 2.65611 7.34533 2.74769C7.43692 2.83928 7.48837 2.9635 7.48837 3.09303V6.66921L10.4368 7.84651C10.4964 7.87029 10.5506 7.90555 10.5965 7.95029C10.6424 7.99502 10.679 8.04836 10.7043 8.10726C10.7296 8.16615 10.743 8.22945 10.7438 8.29353C10.7446 8.35761 10.7328 8.42123 10.709 8.48075C10.6852 8.54026 10.65 8.59451 10.6052 8.6404C10.5605 8.68629 10.5072 8.72292 10.4483 8.74819C10.3894 8.77347 10.3261 8.78689 10.262 8.78771C10.1979 8.78852 10.1343 8.7767 10.0748 8.75293L6.81897 7.45061C6.72786 7.41434 6.64979 7.35144 6.59496 7.27013C6.54013 7.18882 6.51109 7.09286 6.51163 6.99479V3.09303Z" fill="#AAAAAA"/>
</g>
<defs>
<clipPath id="clip0_70_32">
<rect width="14" height="14" fill="white"/>
</clipPath>
</defs>
</svg>
