<svg width="14" height="14" viewBox="0 0 14 14" fill="none" xmlns="http://www.w3.org/2000/svg">
<path d="M7 0C5.61553 0 4.26216 0.410543 3.11101 1.17971C1.95987 1.94888 1.06266 3.04213 0.532846 4.32122C0.00303293 5.6003 -0.13559 7.00776 0.134506 8.36563C0.404603 9.7235 1.07129 10.9708 2.05026 11.9497C3.02922 12.9287 4.2765 13.5954 5.63437 13.8655C6.99224 14.1356 8.3997 13.997 9.67879 13.4672C10.9579 12.9373 12.0511 12.0401 12.8203 10.889C13.5895 9.73785 14 8.38447 14 7C14 5.14348 13.2625 3.36301 11.9497 2.05025C10.637 0.737498 8.85652 0 7 0ZM7.68451 3.03591C7.71853 2.90892 7.78945 2.79488 7.8883 2.7082C7.98714 2.62151 8.10947 2.56609 8.23981 2.54893C8.37015 2.53178 8.50265 2.55365 8.62056 2.6118C8.73847 2.66995 8.83649 2.76175 8.90222 2.87561C8.96795 2.98946 8.99844 3.12025 8.98984 3.25144C8.98124 3.38262 8.93394 3.50831 8.8539 3.61261C8.77387 3.71691 8.66471 3.79513 8.54022 3.83739C8.41573 3.87964 8.2815 3.88404 8.15452 3.85001C8.0702 3.82742 7.99116 3.78844 7.92191 3.7353C7.85265 3.68216 7.79455 3.6159 7.7509 3.5403C7.70726 3.4647 7.67893 3.38125 7.66754 3.29471C7.65615 3.20816 7.66191 3.12022 7.68451 3.03591ZM7.40868 11.2101C6.30727 11.7675 5.47171 11.2942 5.66517 10.5722L6.72889 6.60236C7.094 5.23975 4.90373 6.48319 4.90373 6.48319C5.37014 5.8563 5.95966 5.33126 6.63615 4.94025C7.73753 4.38284 8.57311 4.85617 8.37966 5.57813L7.31594 9.54798C6.95082 10.9106 9.14109 9.66713 9.14109 9.66713C8.67468 10.294 8.08517 10.8191 7.40868 11.2101Z" fill="#CCCCCC"/>
</svg>
