<svg width="1077" height="880" viewBox="0 0 1077 880" fill="none" xmlns="http://www.w3.org/2000/svg">
<path d="M483.634 360.716C512.712 411.518 612.806 438.906 663.977 418.503C720.486 395.962 711.902 255.011 698.124 238.837C684.345 222.664 640.253 354.887 588.257 336.844C530.545 316.806 530.466 216.185 505.822 218.926C481.575 221.618 450.026 301.995 483.634 360.716Z" stroke="url(#paint0_linear_66_3)" stroke-width="2" stroke-miterlimit="10"/>
<path d="M476.523 376.62C501.863 436.165 623.022 462.002 680.101 435.754C744.75 406.005 720.788 252.872 710.557 230.14C701.751 210.545 642.455 337.747 579.626 322.54C511.366 306.033 500.28 215.282 484.442 222.062C467.464 229.348 446.859 306.746 476.523 376.62Z" stroke="url(#paint1_linear_66_3)" stroke-width="2" stroke-miterlimit="10"/>
<path d="M469.427 392.524C490.951 460.718 633.221 485.05 696.207 453.004C769.061 415.984 729.467 251.953 723.005 221.443C718.253 199.266 644.735 320.496 570.963 308.251C492.281 295.182 469.206 212.335 463.171 225.198C452.481 234.797 443.754 311.245 469.427 392.524Z" stroke="url(#paint2_linear_66_3)" stroke-width="2" stroke-miterlimit="10"/>
<path d="M462.269 408.428C480.134 485.224 643.357 508.05 712.283 470.207C793.182 425.853 749.581 248.864 735.406 212.699C726.521 190.047 646.984 303.134 562.316 293.915C473.213 284.204 438.56 210.37 441.839 228.286C437.927 241.387 440.746 315.759 462.269 408.428Z" stroke="url(#paint3_linear_66_3)" stroke-width="2" stroke-miterlimit="10"/>
<path d="M455.206 424.333C469.46 509.699 653.557 531.021 728.454 487.506C817.462 435.802 759.147 249.895 747.886 204.051C741.551 178.326 649.344 285.821 553.732 279.659C454.208 273.323 411.969 206.792 420.569 231.472C426.064 247.281 437.816 320.244 455.206 424.333Z" stroke="url(#paint4_linear_66_3)" stroke-width="2" stroke-miterlimit="10"/>
<path d="M448.095 440.22C458.817 534.171 663.725 553.972 744.561 504.755C841.662 445.653 751.751 250.637 760.399 195.337C764.849 166.681 651.72 268.395 545.148 265.353C435.235 262.185 380.579 204.366 399.331 234.606C410.924 253.425 434.934 324.709 448.095 440.22Z" stroke="url(#paint5_linear_66_3)" stroke-width="2" stroke-miterlimit="10"/>
<path d="M440.999 456.123C448.19 558.644 673.814 576.909 760.683 522.021C865.846 455.489 758.276 249.955 772.768 186.655C779.863 155.687 653.985 250.985 536.453 251.08C416.087 251.175 349.252 202.449 377.949 237.758C395.957 259.903 432.083 329.175 440.999 456.123Z" stroke="url(#paint6_linear_66_3)" stroke-width="2" stroke-miterlimit="10"/>
<path d="M433.887 472.03C437.593 583.122 683.996 599.802 776.805 539.274C890.029 465.361 764.563 249.103 785.215 177.962C794.892 144.601 656.265 233.532 527.821 236.779C397.065 240.09 318.177 200.662 356.647 240.898C381.1 266.496 429.279 333.677 433.887 472.03Z" stroke="url(#paint7_linear_66_3)" stroke-width="2" stroke-miterlimit="10"/>
<path d="M426.776 487.933C427.013 607.594 694.132 622.769 792.928 556.523C914.213 475.197 770.755 248.103 797.679 169.264C809.922 133.432 658.592 216.058 519.205 222.489C378.027 228.999 287.246 198.902 335.345 244.032C366.339 273.148 426.491 338.127 426.776 487.933Z" stroke="url(#paint8_linear_66_3)" stroke-width="2" stroke-miterlimit="10"/>
<path d="M419.681 503.837C416.514 632.148 704.253 645.691 809.035 573.774C938.366 485.066 776.774 246.979 810.096 160.568C824.889 122.201 660.874 198.586 510.558 208.201C358.959 217.895 256.347 197.112 314.012 247.185C351.627 279.817 423.736 342.61 419.681 503.837Z" stroke="url(#paint9_linear_66_3)" stroke-width="2" stroke-miterlimit="10"/>
<path d="M412.57 519.742C405.903 656.574 714.374 668.645 825.158 591.025C962.535 494.84 782.777 245.696 822.545 151.871C839.872 110.923 663.17 181.082 501.927 193.897C339.891 206.775 225.527 195.386 292.711 250.322C336.945 286.502 420.996 347.109 412.57 519.742Z" stroke="url(#paint10_linear_66_3)" stroke-width="2" stroke-miterlimit="10"/>
<path d="M405.459 535.646C395.355 681.064 724.494 691.503 841.281 608.276C986.687 504.646 788.732 244.477 834.946 143.175C854.838 99.6286 665.483 163.594 493.248 179.609C320.791 195.655 194.691 193.628 271.361 253.458C322.28 293.171 418.256 351.608 405.459 535.646Z" stroke="url(#paint11_linear_66_3)" stroke-width="2" stroke-miterlimit="10"/>
<path d="M398.364 551.548C384.823 705.568 734.678 714.407 857.388 625.525C1010.84 514.449 794.671 243.128 847.426 134.461C869.852 88.2688 667.748 146.072 484.648 165.302C301.548 184.533 163.95 191.867 250.044 256.593C307.63 299.854 415.548 356.105 398.364 551.548Z" stroke="url(#paint12_linear_66_3)" stroke-width="2" stroke-miterlimit="10"/>
<path d="M391.253 567.452C374.291 730.074 744.719 737.313 873.511 642.791C1035.06 524.255 800.657 241.718 859.875 125.78C884.851 76.9111 670.028 128.568 476.016 151.014C282.685 173.397 133.209 190.093 228.774 259.745C292.996 306.539 412.824 360.603 391.253 567.452Z" stroke="url(#paint13_linear_66_3)" stroke-width="2" stroke-miterlimit="10"/>
<path d="M384.142 583.359C363.759 754.582 754.649 759.968 889.634 659.997C1058.91 533.699 806.486 240.216 872.307 117.039C899.849 65.4927 672.309 111.003 467.385 136.681C263.617 162.217 102.452 188.275 207.456 262.837C278.362 313.227 410.131 365.137 384.142 583.359Z" stroke="url(#paint14_linear_66_3)" stroke-width="2" stroke-miterlimit="10"/>
<path d="M377.047 599.261C353.242 779.086 764.769 782.888 905.725 677.293C1083.11 543.581 812.282 238.805 884.724 108.388C914.816 54.1329 674.558 93.5289 458.69 122.438C244.469 151.11 71.6639 186.546 186.075 266.019C263.728 319.909 407.423 369.649 377.047 599.261Z" stroke="url(#paint15_linear_66_3)" stroke-width="2" stroke-miterlimit="10"/>
<path d="M369.934 615.166C342.725 803.671 774.905 805.825 921.863 694.544C1107.16 553.418 818.268 237.316 897.187 99.6911C929.861 42.6643 676.822 75.6289 450.105 108.15C225.4 139.594 40.9853 184.772 164.836 269.156C249.109 326.594 404.73 374.18 369.934 615.166Z" stroke="url(#paint16_linear_66_3)" stroke-width="2" stroke-miterlimit="10"/>
<path d="M362.823 631.069C332.558 828.175 785.041 828.762 937.986 711.793C1131.43 563.254 824.16 235.794 909.636 90.9775C944.859 31.3053 679.102 58.1871 441.473 93.8446C206.331 128.52 10.2761 182.997 143.519 272.307C234.49 333.278 402.481 378.773 362.823 631.069Z" stroke="url(#paint17_linear_66_3)" stroke-width="2" stroke-miterlimit="10"/>
<path d="M355.729 646.976C321.963 852.684 795.162 851.67 954.109 729.047C1155.6 573.11 830.036 234.26 922.085 82.2837C959.874 19.8869 681.352 40.7333 432.843 79.559C187.263 117.45 -20.4483 181.209 122.218 275.446C219.952 340.013 399.694 383.29 355.729 646.976Z" stroke="url(#paint18_linear_66_3)" stroke-width="2" stroke-miterlimit="10"/>
<path d="M348.617 662.879C311.367 877.189 805.297 874.623 970.216 746.296C1179.72 582.946 835.928 232.691 934.517 73.5863C974.888 8.44902 683.68 23.1968 424.258 65.2699C168.242 106.456 -51.2848 179.688 100.947 278.582C205.144 346.84 396.891 387.804 348.617 662.879Z" stroke="url(#paint19_linear_66_3)" stroke-width="2" stroke-miterlimit="10"/>
<path d="M341.506 678.781C300.724 901.692 815.45 897.606 986.338 763.545C1203.93 592.782 841.819 231.121 946.902 64.8876C989.854 -3.00593 685.897 5.81742 415.516 50.9636C149.11 95.302 -81.9466 177.769 79.5821 281.716C190.604 353.427 394.166 392.285 341.506 678.781Z" stroke="url(#paint20_linear_66_3)" stroke-width="2" stroke-miterlimit="10"/>
<path d="M58.2805 284.87C176.05 360.018 391.3 396.848 334.411 694.686C290.176 926.215 825.554 920.497 1002.46 780.813C1228.12 602.62 847.711 229.554 959.398 56.1923C1049.74 -83.9985 -286.142 65.1107 58.2805 284.87Z" stroke="url(#paint21_linear_66_3)" stroke-width="2" stroke-miterlimit="10"/>
<defs>
<linearGradient id="paint0_linear_66_3" x1="469.004" y1="322.083" x2="708.331" y2="322.083" gradientUnits="userSpaceOnUse">
<stop stop-color="#DDD9FF"/>
<stop offset="0.432692" stop-color="#ECDBF9"/>
<stop offset="1" stop-color="#CFDFEF"/>
</linearGradient>
<linearGradient id="paint1_linear_66_3" x1="461.511" y1="333.845" x2="723.463" y2="333.845" gradientUnits="userSpaceOnUse">
<stop stop-color="#DDD9FF"/>
<stop offset="0.432692" stop-color="#ECDBF9"/>
<stop offset="1" stop-color="#CFDFEF"/>
</linearGradient>
<linearGradient id="paint2_linear_66_3" x1="452.647" y1="342.847" x2="739.534" y2="342.847" gradientUnits="userSpaceOnUse">
<stop stop-color="#DDD9FF"/>
<stop offset="0.432692" stop-color="#ECDBF9"/>
<stop offset="1" stop-color="#CFDFEF"/>
</linearGradient>
<linearGradient id="paint3_linear_66_3" x1="440.351" y1="348.906" x2="759.89" y2="348.906" gradientUnits="userSpaceOnUse">
<stop stop-color="#DDD9FF"/>
<stop offset="0.432692" stop-color="#ECDBF9"/>
<stop offset="1" stop-color="#CFDFEF"/>
</linearGradient>
<linearGradient id="paint4_linear_66_3" x1="419.481" y1="354.753" x2="777.044" y2="354.753" gradientUnits="userSpaceOnUse">
<stop stop-color="#DDD9FF"/>
<stop offset="0.432692" stop-color="#ECDBF9"/>
<stop offset="1" stop-color="#CFDFEF"/>
</linearGradient>
<linearGradient id="paint5_linear_66_3" x1="395.699" y1="360.546" x2="790.046" y2="360.546" gradientUnits="userSpaceOnUse">
<stop stop-color="#DDD9FF"/>
<stop offset="0.432692" stop-color="#ECDBF9"/>
<stop offset="1" stop-color="#CFDFEF"/>
</linearGradient>
<linearGradient id="paint6_linear_66_3" x1="371.334" y1="366.406" x2="807.337" y2="366.406" gradientUnits="userSpaceOnUse">
<stop stop-color="#DDD9FF"/>
<stop offset="0.432692" stop-color="#ECDBF9"/>
<stop offset="1" stop-color="#CFDFEF"/>
</linearGradient>
<linearGradient id="paint7_linear_66_3" x1="346.879" y1="372.188" x2="824.784" y2="372.188" gradientUnits="userSpaceOnUse">
<stop stop-color="#DDD9FF"/>
<stop offset="0.432692" stop-color="#ECDBF9"/>
<stop offset="1" stop-color="#CFDFEF"/>
</linearGradient>
<linearGradient id="paint8_linear_66_3" x1="322.349" y1="377.903" x2="842.367" y2="377.903" gradientUnits="userSpaceOnUse">
<stop stop-color="#DDD9FF"/>
<stop offset="0.432692" stop-color="#ECDBF9"/>
<stop offset="1" stop-color="#CFDFEF"/>
</linearGradient>
<linearGradient id="paint9_linear_66_3" x1="297.734" y1="383.527" x2="860.013" y2="383.527" gradientUnits="userSpaceOnUse">
<stop stop-color="#DDD9FF"/>
<stop offset="0.432692" stop-color="#ECDBF9"/>
<stop offset="1" stop-color="#CFDFEF"/>
</linearGradient>
<linearGradient id="paint10_linear_66_3" x1="273.115" y1="389.029" x2="877.761" y2="389.029" gradientUnits="userSpaceOnUse">
<stop stop-color="#DDD9FF"/>
<stop offset="0.432692" stop-color="#ECDBF9"/>
<stop offset="1" stop-color="#CFDFEF"/>
</linearGradient>
<linearGradient id="paint11_linear_66_3" x1="248.426" y1="394.403" x2="895.564" y2="394.403" gradientUnits="userSpaceOnUse">
<stop stop-color="#DDD9FF"/>
<stop offset="0.432692" stop-color="#ECDBF9"/>
<stop offset="1" stop-color="#CFDFEF"/>
</linearGradient>
<linearGradient id="paint12_linear_66_3" x1="223.749" y1="399.641" x2="913.417" y2="399.641" gradientUnits="userSpaceOnUse">
<stop stop-color="#DDD9FF"/>
<stop offset="0.432692" stop-color="#ECDBF9"/>
<stop offset="1" stop-color="#CFDFEF"/>
</linearGradient>
<linearGradient id="paint13_linear_66_3" x1="199.115" y1="404.751" x2="931.356" y2="404.751" gradientUnits="userSpaceOnUse">
<stop stop-color="#DDD9FF"/>
<stop offset="0.432692" stop-color="#ECDBF9"/>
<stop offset="1" stop-color="#CFDFEF"/>
</linearGradient>
<linearGradient id="paint14_linear_66_3" x1="174.415" y1="409.622" x2="949.152" y2="409.622" gradientUnits="userSpaceOnUse">
<stop stop-color="#DDD9FF"/>
<stop offset="0.432692" stop-color="#ECDBF9"/>
<stop offset="1" stop-color="#CFDFEF"/>
</linearGradient>
<linearGradient id="paint15_linear_66_3" x1="149.65" y1="414.439" x2="967.112" y2="414.439" gradientUnits="userSpaceOnUse">
<stop stop-color="#DDD9FF"/>
<stop offset="0.432692" stop-color="#ECDBF9"/>
<stop offset="1" stop-color="#CFDFEF"/>
</linearGradient>
<linearGradient id="paint16_linear_66_3" x1="124.997" y1="419.02" x2="985.085" y2="419.02" gradientUnits="userSpaceOnUse">
<stop stop-color="#DDD9FF"/>
<stop offset="0.432692" stop-color="#ECDBF9"/>
<stop offset="1" stop-color="#CFDFEF"/>
</linearGradient>
<linearGradient id="paint17_linear_66_3" x1="100.286" y1="423.515" x2="1003.15" y2="423.515" gradientUnits="userSpaceOnUse">
<stop stop-color="#DDD9FF"/>
<stop offset="0.432692" stop-color="#ECDBF9"/>
<stop offset="1" stop-color="#CFDFEF"/>
</linearGradient>
<linearGradient id="paint18_linear_66_3" x1="75.5703" y1="427.848" x2="1021.19" y2="427.848" gradientUnits="userSpaceOnUse">
<stop stop-color="#DDD9FF"/>
<stop offset="0.432692" stop-color="#ECDBF9"/>
<stop offset="1" stop-color="#CFDFEF"/>
</linearGradient>
<linearGradient id="paint19_linear_66_3" x1="50.8232" y1="432.036" x2="1039.22" y2="432.036" gradientUnits="userSpaceOnUse">
<stop stop-color="#DDD9FF"/>
<stop offset="0.432692" stop-color="#ECDBF9"/>
<stop offset="1" stop-color="#CFDFEF"/>
</linearGradient>
<linearGradient id="paint20_linear_66_3" x1="26.084" y1="436.134" x2="1057.31" y2="436.134" gradientUnits="userSpaceOnUse">
<stop stop-color="#DDD9FF"/>
<stop offset="0.432692" stop-color="#ECDBF9"/>
<stop offset="1" stop-color="#CFDFEF"/>
</linearGradient>
<linearGradient id="paint21_linear_66_3" x1="1.39551" y1="440.104" x2="1075.4" y2="440.104" gradientUnits="userSpaceOnUse">
<stop stop-color="#DDD9FF"/>
<stop offset="0.432692" stop-color="#ECDBF9"/>
<stop offset="1" stop-color="#CFDFEF"/>
</linearGradient>
</defs>
</svg>
