<svg width="13" height="12" viewBox="0 0 13 12" fill="none" xmlns="http://www.w3.org/2000/svg">
<path fill-rule="evenodd" clip-rule="evenodd" d="M2.96528 0.991082C2.96528 0.912949 2.90154 0.849609 2.82291 0.849609H0.142367C0.0637399 0.849609 0 0.912949 0 0.991082V2.91812C0 2.99625 0.0637397 3.05959 0.142367 3.05959H1.34027C1.4189 3.05959 1.48264 3.12293 1.48264 3.20106V5.1281C1.48264 5.20623 1.54638 5.26957 1.62501 5.26957H2.82291C2.90154 5.26957 2.96528 5.33291 2.96528 5.41104V7.33808C2.96528 7.41621 2.90154 7.47955 2.82291 7.47955H1.62501C1.54638 7.47955 1.48264 7.54289 1.48264 7.62102V9.54806C1.48264 9.62619 1.4189 9.68953 1.34027 9.68953H0.142367C0.0637399 9.68953 0 9.75287 0 9.831V11.758C0 11.8362 0.0637397 11.8995 0.142367 11.8995H2.82291C2.90154 11.8995 2.96528 11.8362 2.96528 11.758V9.831C2.96528 9.75287 3.02902 9.68953 3.10764 9.68953H4.30555C4.38418 9.68953 4.44792 9.62619 4.44792 9.54806V7.62102C4.44792 7.54289 4.51166 7.47955 4.59028 7.47955H5.78819C5.86681 7.47955 5.93055 7.41621 5.93055 7.33808V5.41104C5.93055 5.33291 5.86681 5.26957 5.78819 5.26957H4.59028C4.51166 5.26957 4.44792 5.20623 4.44792 5.1281V3.20106C4.44792 3.12293 4.38418 3.05959 4.30555 3.05959H3.10764C3.02902 3.05959 2.96528 2.99625 2.96528 2.91812V0.991082Z" fill="#222222"/>
<path fill-rule="evenodd" clip-rule="evenodd" d="M10.0347 0.991082C10.0347 0.912949 10.0985 0.849609 10.1771 0.849609H12.8576C12.9363 0.849609 13 0.912949 13 0.991082V2.91812C13 2.99625 12.9363 3.05959 12.8576 3.05959H11.6597C11.5811 3.05959 11.5174 3.12293 11.5174 3.20106V5.1281C11.5174 5.20623 11.4536 5.26957 11.375 5.26957H10.1771C10.0985 5.26957 10.0347 5.33291 10.0347 5.41104V7.33808C10.0347 7.41621 10.0985 7.47955 10.1771 7.47955H11.375C11.4536 7.47955 11.5174 7.54289 11.5174 7.62102V9.54806C11.5174 9.62619 11.5811 9.68953 11.6597 9.68953H12.8576C12.9363 9.68953 13 9.75287 13 9.831V11.758C13 11.8362 12.9363 11.8995 12.8576 11.8995H10.1771C10.0985 11.8995 10.0347 11.8362 10.0347 11.758V9.831C10.0347 9.75287 9.97098 9.68953 9.89236 9.68953H8.69445C8.61582 9.68953 8.55208 9.62619 8.55208 9.54806V7.62102C8.55208 7.54289 8.48834 7.47955 8.40972 7.47955H7.21181C7.13319 7.47955 7.06945 7.41621 7.06945 7.33808V5.41104C7.06945 5.33291 7.13319 5.26957 7.21181 5.26957H8.40972C8.48834 5.26957 8.55208 5.20623 8.55208 5.1281V3.20106C8.55208 3.12293 8.61582 3.05959 8.69445 3.05959H9.89236C9.97098 3.05959 10.0347 2.99625 10.0347 2.91812V0.991082Z" fill="#222222"/>
</svg>
